<svg xmlns="http://www.w3.org/2000/svg" width="512" height="512" viewBox="0 0 512 512">
<g>
<path d="M 295.00 503.43 C281.77,505.33 255.60,506.12 242.40,505.01 C129.90,495.54 38.10,410.02 20.81,298.56 C17.63,278.11 17.64,240.99 20.83,223.00 C26.76,189.46 38.49,158.68 55.49,132.04 C113.97,40.35 222.87,-1.44 328.12,27.41 C344.56,31.92 353.94,35.60 371.82,44.54 C440.35,78.83 488.27,143.98 502.12,221.70 C504.78,236.64 505.86,273.94 504.06,288.72 C500.94,314.33 492.87,342.90 482.73,364.24 C446.61,440.23 377.35,491.58 295.00,503.43 ZM 238.00 498.33 C247.82,499.32 279.74,498.86 290.11,497.57 C343.05,491.00 391.59,467.27 429.23,429.55 C465.75,392.97 487.84,349.37 496.66,296.50 C499.21,281.25 499.20,244.38 496.65,228.20 C494.49,214.53 490.13,196.51 486.19,185.00 C461.29,112.29 402.06,55.48 329.00,34.21 C306.99,27.81 287.14,25.05 262.87,25.02 C224.54,24.98 193.34,32.06 157.50,48.94 C123.01,65.18 87.58,95.80 65.41,128.52 C35.64,172.47 22.18,221.12 25.03,274.56 C26.81,307.93 33.91,335.45 48.52,365.50 C60.39,389.93 74.14,409.21 93.47,428.53 C113.39,448.44 130.82,461.17 155.10,473.51 C162.31,477.18 172.92,481.95 178.67,484.11 C195.54,490.45 221.42,496.65 238.00,498.33 ZM 284.24 485.52 C255.40,488.58 227.55,485.93 198.50,477.34 C127.29,456.31 70.94,401.44 48.21,331.00 C40.84,308.16 38.20,292.78 37.33,267.50 C36.05,230.38 43.16,197.58 59.90,163.50 C70.47,142.00 79.13,129.18 95.98,110.13 C111.63,92.43 137.97,72.47 160.50,61.23 C237.46,22.84 328.87,31.02 396.94,82.38 C408.29,90.94 426.08,107.81 433.97,117.47 C461.34,151.02 478.65,190.46 484.43,232.50 C490.69,278.00 481.53,328.28 459.75,368.00 C423.42,434.25 358.65,477.62 284.24,485.52 ZM 149.00 397.67 C149.00,398.77 170.63,399.00 272.76,399.00 L 396.52 399.00 L 405.93 352.75 C411.10,327.31 415.54,305.49 415.78,304.25 L 416.23 302.00 L 350.18 302.00 C313.84,302.00 283.92,301.66 283.67,301.25 C283.43,300.84 292.83,252.35 304.57,193.50 C316.31,134.65 325.93,86.16 325.96,85.75 C325.98,85.34 300.12,85.00 268.50,85.00 C236.88,85.00 210.98,85.34 210.95,85.75 C210.93,86.16 204.25,119.79 196.11,160.47 L 181.31 234.45 L 116.16 251.45 C80.32,260.80 51.00,268.80 51.00,269.22 C51.00,269.65 78.93,270.00 113.07,270.00 C171.70,270.00 175.11,270.10 174.65,271.75 C174.38,272.71 172.91,279.91 171.38,287.74 L 168.60 301.98 L 124.57 302.24 L 80.54 302.50 L 118.89 318.98 C139.99,328.04 157.93,335.96 158.77,336.57 C160.39,337.76 159.84,341.40 151.94,381.42 C150.32,389.63 149.00,396.94 149.00,397.67 Z" fill="rgb(6,49,98)"/>
<path d="M 0.00 256.00 L 0.00 0.00 L 256.00 0.00 L 512.00 0.00 L 512.00 256.00 L 512.00 512.00 L 256.00 512.00 L 0.00 512.00 L 0.00 256.00 ZM 295.00 503.43 C377.35,491.58 446.61,440.23 482.73,364.24 C492.87,342.90 500.94,314.33 504.06,288.72 C505.86,273.94 504.78,236.64 502.12,221.70 C488.27,143.98 440.35,78.83 371.82,44.54 C353.94,35.60 344.56,31.92 328.12,27.41 C222.87,-1.44 113.97,40.35 55.49,132.04 C38.49,158.68 26.76,189.46 20.83,223.00 C17.64,240.99 17.63,278.11 20.81,298.56 C38.10,410.02 129.90,495.54 242.40,505.01 C255.60,506.12 281.77,505.33 295.00,503.43 ZM 238.00 498.33 C221.42,496.65 195.54,490.45 178.67,484.11 C172.92,481.95 162.31,477.18 155.10,473.51 C130.82,461.17 113.39,448.44 93.47,428.53 C74.14,409.21 60.39,389.93 48.52,365.50 C33.91,335.45 26.81,307.93 25.03,274.56 C22.18,221.12 35.64,172.47 65.41,128.52 C87.58,95.80 123.01,65.18 157.50,48.94 C193.34,32.06 224.54,24.98 262.87,25.02 C287.14,25.05 306.99,27.81 329.00,34.21 C402.06,55.48 461.29,112.29 486.19,185.00 C490.13,196.51 494.49,214.53 496.65,228.20 C499.20,244.38 499.21,281.25 496.66,296.50 C487.84,349.37 465.75,392.97 429.23,429.55 C391.59,467.27 343.05,491.00 290.11,497.57 C279.74,498.86 247.82,499.32 238.00,498.33 ZM 284.24 485.52 C358.65,477.62 423.42,434.25 459.75,368.00 C481.53,328.28 490.69,278.00 484.43,232.50 C478.65,190.46 461.34,151.02 433.97,117.47 C426.08,107.81 408.29,90.94 396.94,82.38 C328.87,31.02 237.46,22.84 160.50,61.23 C137.97,72.47 111.63,92.43 95.98,110.13 C79.13,129.18 70.47,142.00 59.90,163.50 C43.16,197.58 36.05,230.38 37.33,267.50 C38.20,292.78 40.84,308.16 48.21,331.00 C70.94,401.44 127.29,456.31 198.50,477.34 C227.55,485.93 255.40,488.58 284.24,485.52 ZM 149.00 397.67 C149.00,396.94 150.32,389.63 151.94,381.42 C159.84,341.40 160.39,337.76 158.77,336.57 C157.93,335.96 139.99,328.04 118.89,318.98 L 80.54 302.50 L 124.57 302.24 L 168.60 301.98 L 171.38 287.74 C172.91,279.91 174.38,272.71 174.65,271.75 C175.11,270.10 171.70,270.00 113.07,270.00 C78.93,270.00 51.00,269.65 51.00,269.22 C51.00,268.80 80.32,260.80 116.16,251.45 L 181.31 234.45 L 196.11 160.47 C204.25,119.79 210.93,86.16 210.95,85.75 C210.98,85.34 236.88,85.00 268.50,85.00 C300.12,85.00 325.98,85.34 325.96,85.75 C325.93,86.16 316.31,134.65 304.57,193.50 C292.83,252.35 283.43,300.84 283.67,301.25 C283.92,301.66 313.84,302.00 350.18,302.00 L 416.23 302.00 L 415.78 304.25 C415.54,305.49 411.10,327.31 405.93,352.75 L 396.52 399.00 L 272.76 399.00 C170.63,399.00 149.00,398.77 149.00,397.67 Z" fill="rgb(253,254,254)"/>
</g>
</svg>
