<svg xmlns="http://www.w3.org/2000/svg" width="2159" height="486" viewBox="0 0 2159 486">
<g>
<path d="M 278.70 423.46 C211.04,432.28 139.64,403.43 96.27,349.75 C34.48,273.26 35.27,165.48 98.19,90.50 C141.13,39.32 207.77,12.26 274.14,19.06 C378.60,29.76 457.00,116.56 457.00,221.50 C457.00,274.03 436.96,323.84 400.60,361.73 C387.96,374.89 378.68,382.62 364.00,392.22 C338.50,408.90 309.81,419.41 278.70,423.46 ZM 235.00 418.94 C246.14,420.17 270.92,419.45 283.50,417.51 C303.83,414.39 328.58,406.21 346.00,396.87 C394.90,370.63 430.99,325.39 444.93,272.87 C457.36,226.02 452.89,178.43 431.98,135.15 C401.19,71.40 340.12,29.74 269.00,23.97 C219.24,19.93 167.32,36.21 128.50,68.02 C119.97,75.01 103.10,92.33 96.86,100.50 C75.63,128.30 62.38,160.29 57.44,195.68 C55.38,210.44 55.92,240.62 58.51,255.00 C74.34,343.01 145.38,408.99 235.00,418.94 ZM 278.72 407.51 C266.32,409.27 241.95,409.27 228.98,407.49 C154.81,397.36 92.03,342.24 72.98,270.50 C61.07,225.69 65.17,181.29 84.99,140.21 C94.87,119.75 104.65,105.98 121.28,89.16 C151.89,58.20 190.57,39.68 234.50,34.93 C247.84,33.49 272.89,34.24 285.50,36.46 C322.84,43.02 355.56,59.49 382.69,85.37 C414.27,115.50 433.29,152.50 439.58,196.00 C441.88,211.90 441.13,240.96 438.03,256.50 C426.25,315.59 387.79,365.24 333.98,390.86 C315.56,399.63 298.93,404.64 278.72,407.51 ZM 515.59 326.99 L 506.71 351.00 L 477.36 351.00 C461.21,351.00 448.00,350.74 448.00,350.42 C448.00,349.91 520.02,170.94 538.21,126.25 L 545.23 109.00 L 596.50 109.05 L 622.71 174.28 C672.01,297.01 685.47,330.00 686.24,330.00 C686.66,330.00 687.00,280.27 687.00,219.50 L 687.00 109.00 L 734.25 109.01 C784.29,109.01 794.08,109.68 806.28,113.91 C827.18,121.15 842.34,135.98 848.60,155.29 C850.77,162.00 851.34,165.96 851.72,177.00 C852.42,197.31 849.20,209.74 839.59,223.88 C831.81,235.30 819.68,244.64 805.73,249.92 L 802.96 250.97 L 833.73 287.91 C850.65,308.23 864.80,324.55 865.16,324.18 C865.53,323.81 885.28,275.24 909.06,216.25 L 952.29 109.00 L 977.89 109.01 L 1003.50 109.02 L 1051.80 228.76 C1078.37,294.62 1100.20,348.95 1100.30,349.50 C1100.43,350.15 1090.16,350.50 1071.08,350.50 L 1041.65 350.50 L 1024.30 303.50 L 931.50 303.01 L 924.10 323.25 C920.03,334.39 916.05,345.19 915.24,347.25 L 913.78 351.00 L 816.17 351.00 L 779.34 303.32 L 742.50 255.64 L 742.24 303.33 L 741.98 351.02 L 688.24 350.76 L 634.51 350.50 L 617.16 303.50 L 570.81 303.24 L 524.46 302.98 ZM 1457.34 303.00 L 1439.70 351.00 L 1380.87 351.00 L 1381.58 348.75 C1381.97,347.51 1403.80,293.17 1430.08,228.00 L 1477.87 109.50 L 1529.41 109.50 L 1573.89 219.75 C1598.36,280.39 1618.74,330.00 1619.19,330.00 C1619.64,330.00 1620.00,280.27 1620.00,219.48 L 1620.00 108.97 L 1647.74 109.23 L 1675.47 109.50 L 1722.99 183.75 C1749.12,224.58 1770.84,257.99 1771.25,258.00 C1771.66,258.00 1772.00,224.48 1772.00,183.50 L 1772.00 109.00 L 1827.01 109.00 L 1826.50 350.50 L 1771.57 350.50 L 1739.25 300.00 C1721.47,272.23 1699.85,238.48 1691.21,225.00 L 1675.50 200.50 L 1674.50 350.50 L 1567.50 350.50 L 1561.37 334.00 C1558.00,324.92 1554.03,314.24 1552.56,310.25 L 1549.87 303.00 ZM 1221.32 283.75 L 1202.34 350.50 L 1172.30 350.76 C1149.02,350.97 1142.05,350.74 1141.29,349.76 C1140.75,349.07 1125.85,297.65 1108.17,235.50 C1090.49,173.35 1075.15,119.46 1074.08,115.75 L 1072.14 109.00 L 1133.58 109.00 L 1153.90 191.25 C1165.09,236.49 1174.60,273.90 1175.05,274.38 C1175.18,274.53 1175.28,274.71 1175.40,274.72 C1176.20,274.84 1178.00,268.02 1196.42,198.28 L 1199.00 188.50 C1210.04,146.70 1219.31,111.71 1219.60,110.75 C1220.09,109.16 1222.00,109.00 1241.07,109.00 C1252.58,109.00 1262.00,109.21 1262.00,109.47 C1262.00,110.16 1304.93,272.23 1305.58,274.00 C1306.07,275.33 1306.22,275.33 1306.94,274.00 C1307.38,273.17 1316.89,235.71 1328.07,190.75 L 1348.40 109.00 L 1378.70 109.00 C1395.36,109.00 1409.00,109.23 1409.00,109.51 C1409.00,111.05 1340.74,349.63 1340.12,350.27 C1339.71,350.69 1325.91,350.91 1309.47,350.77 L 1279.56 350.50 L 1260.53 283.76 C1250.06,247.05 1241.23,217.01 1240.90,217.01 C1240.57,217.00 1231.76,247.04 1221.32,283.75 ZM 159.56 334.25 C159.21,335.91 164.63,336.00 262.57,336.00 L 365.96 336.00 L 366.49 333.75 C368.11,326.93 382.00,257.66 382.00,256.45 C382.00,255.20 374.30,255.00 327.00,255.00 C276.08,255.00 272.00,254.87 272.00,253.31 C272.00,252.39 279.88,212.16 289.50,163.91 C299.12,115.67 307.00,75.71 307.00,75.10 C307.00,74.32 293.33,74.00 259.24,74.00 L 211.48 74.00 L 199.08 136.09 C187.85,192.30 186.48,198.24 184.59,198.92 C183.44,199.33 159.44,205.68 131.25,213.04 C103.06,220.39 80.00,226.76 80.00,227.20 C80.00,227.64 102.72,228.00 130.50,228.00 C158.27,228.00 181.00,228.39 181.00,228.86 C181.00,229.34 179.88,235.25 178.50,242.00 C177.12,248.75 176.00,254.43 176.00,254.63 C176.00,254.82 159.56,255.09 139.46,255.24 L 102.92 255.50 L 135.57 269.46 C153.53,277.14 168.43,283.96 168.69,284.62 C169.03,285.53 163.03,318.18 159.56,334.25 ZM 1957.50 351.61 C1948.85,353.86 1945.00,354.27 1929.00,354.57 C1909.55,354.94 1903.09,354.24 1887.00,350.02 C1873.08,346.37 1843.25,331.24 1837.35,324.83 L 1835.20 322.50 L 1848.49 300.19 C1855.80,287.92 1862.00,277.67 1862.27,277.40 C1862.53,277.13 1866.07,279.41 1870.12,282.45 C1877.61,288.09 1897.42,298.51 1906.50,301.60 C1913.84,304.10 1929.11,304.59 1937.05,302.59 C1949.77,299.38 1955.95,292.39 1955.98,281.20 C1956.00,273.84 1954.62,270.70 1949.21,265.81 C1943.89,261.00 1936.34,256.73 1918.00,248.12 C1899.52,239.45 1890.69,234.42 1882.15,227.67 C1865.70,214.70 1856.06,196.26 1856.01,177.71 C1855.97,155.77 1866.17,135.56 1884.10,122.05 C1899.71,110.28 1911.67,106.10 1932.05,105.29 C1948.55,104.64 1961.03,106.38 1977.14,111.59 C1991.60,116.26 1996.16,118.25 2003.75,123.17 L 2009.99 127.23 L 1998.89 149.08 L 1987.79 170.94 L 1980.64 167.02 C1976.72,164.87 1968.55,161.40 1962.50,159.32 C1952.08,155.74 1950.84,155.54 1939.00,155.52 C1927.32,155.51 1926.16,155.69 1921.35,158.22 C1913.08,162.58 1909.30,169.13 1910.25,177.50 C1911.32,187.03 1920.26,193.25 1955.37,208.91 C1975.81,218.03 1987.01,225.15 1997.74,235.85 C2012.03,250.10 2016.55,260.65 2016.40,279.50 C2016.26,298.18 2011.87,312.00 2001.73,325.64 C1993.60,336.57 1976.40,346.68 1957.50,351.61 ZM 742.00 153.00 L 742.00 216.00 L 753.05 216.00 C780.94,216.00 792.70,207.50 793.80,186.57 C794.49,173.38 789.64,162.41 781.21,158.11 C775.39,155.14 763.18,153.00 752.04,153.00 ZM 1477.00 253.16 C1477.00,253.62 1489.14,254.00 1503.98,254.00 L 1530.95 254.00 L 1530.08 251.75 C1529.61,250.51 1523.95,235.77 1517.51,219.00 C1511.07,202.23 1505.38,187.43 1504.87,186.11 C1504.36,184.80 1503.71,183.95 1503.43,184.24 C1502.75,184.92 1477.00,252.07 1477.00,253.16 ZM 951.22 252.75 C950.88,253.73 956.66,254.00 977.98,254.00 C992.97,254.00 1005.02,253.61 1004.83,253.13 C1004.65,252.65 998.65,236.91 991.50,218.15 C984.35,199.39 978.25,184.03 977.94,184.02 C977.53,184.01 954.76,242.58 951.22,252.75 ZM 544.00 253.28 C544.00,253.67 556.14,254.00 570.98,254.00 L 597.95 254.00 L 597.09 251.75 C580.24,207.43 571.66,185.34 571.05,184.70 C570.43,184.03 544.00,251.02 544.00,253.28 ZM 1000.78 376.12 L 1000.50 387.25 L 995.92 387.64 C990.01,388.14 987.50,385.73 987.50,379.55 C987.50,374.00 989.25,372.00 994.12,372.00 C997.89,372.00 998.00,371.90 998.00,368.50 C998.00,366.02 998.45,365.00 999.53,365.00 C1000.83,365.00 1001.02,366.67 1000.78,376.12 ZM 1216.46 387.38 C1213.35,388.57 1210.89,387.98 1208.33,385.42 C1206.14,383.23 1205.84,382.23 1206.31,378.71 C1206.95,373.93 1209.05,372.00 1213.62,372.00 C1217.43,372.00 1219.59,373.86 1220.48,377.92 C1221.21,381.25 1219.02,386.39 1216.46,387.38 ZM 817.97 386.03 C815.30,388.70 811.42,388.51 808.45,385.55 C805.81,382.90 805.31,379.17 807.15,375.68 C808.75,372.64 809.94,372.03 814.30,372.02 C817.73,372.00 818.25,372.35 819.62,375.64 C821.36,379.80 820.83,383.17 817.97,386.03 ZM 1664.93 385.37 C1661.38,389.88 1655.25,388.42 1653.01,382.54 C1650.92,377.02 1654.30,372.00 1660.10,372.00 C1662.88,372.00 1664.30,372.59 1665.44,374.22 C1667.61,377.32 1667.38,382.24 1664.93,385.37 ZM 1363.00 386.00 C1356.60,392.40 1347.23,381.83 1352.56,374.22 C1354.56,371.36 1360.90,371.13 1363.34,373.83 C1365.73,376.46 1365.53,383.47 1363.00,386.00 ZM 672.93 385.37 C668.54,390.94 661.00,387.13 661.00,379.34 C661.00,374.35 663.33,372.00 668.27,372.00 C674.61,372.00 677.32,379.78 672.93,385.37 ZM 2009.00 115.50 C2009.00,118.33 2008.62,119.00 2007.00,119.00 C2005.16,119.00 2005.00,118.33 2005.00,110.50 L 2005.00 102.00 L 2010.30 102.00 C2013.21,102.00 2016.14,102.54 2016.80,103.20 C2018.44,104.84 2018.31,107.50 2016.52,108.98 C2015.45,109.87 2015.31,110.71 2016.02,112.04 C2016.56,113.04 2017.44,115.02 2017.97,116.43 C2018.81,118.63 2018.68,119.00 2017.05,119.00 C2015.77,119.00 2014.78,117.86 2014.00,115.50 C2013.21,113.11 2012.23,112.00 2010.92,112.00 C2009.39,112.00 2009.00,112.71 2009.00,115.50 ZM 1512.80 382.31 L 1512.50 387.25 L 1508.00 387.60 C1502.56,388.02 1500.00,386.71 1500.00,383.51 C1500.00,380.59 1503.43,378.00 1507.30,378.00 C1509.47,378.00 1510.07,377.58 1509.81,376.26 C1509.38,374.02 1506.38,373.46 1503.37,375.07 C1500.43,376.64 1499.35,375.79 1501.52,373.62 C1502.47,372.67 1504.79,372.00 1507.10,372.00 C1510.47,372.00 1511.20,372.40 1512.07,374.69 C1512.63,376.16 1512.96,379.59 1512.80,382.31 ZM 1073.00 381.68 L 1073.00 387.50 L 1068.11 387.71 C1063.23,387.91 1060.00,386.11 1060.00,383.17 C1060.00,380.92 1064.00,378.00 1067.07,378.00 C1069.46,378.00 1070.07,377.61 1069.81,376.25 C1069.41,374.12 1065.44,373.39 1063.42,375.07 C1061.48,376.67 1060.36,375.47 1061.98,373.52 C1062.71,372.64 1064.86,372.00 1067.09,372.00 C1071.89,372.00 1073.00,373.81 1073.00,381.68 ZM 632.00 386.00 C629.03,388.97 623.56,388.65 620.23,385.32 C616.93,382.02 618.81,380.92 622.63,383.92 C625.72,386.36 628.28,386.58 629.96,384.55 C631.98,382.11 630.70,379.77 626.57,378.34 C621.52,376.59 619.00,374.28 619.00,371.40 C619.00,366.45 628.08,364.08 632.00,368.00 C634.19,370.19 634.51,371.56 633.05,372.47 C632.53,372.79 631.61,372.14 631.02,371.03 C629.62,368.42 623.26,368.15 622.30,370.66 C621.55,372.61 625.24,376.00 628.11,376.00 C630.59,376.00 634.00,379.47 634.00,382.00 C634.00,383.10 633.10,384.90 632.00,386.00 ZM 1291.02 386.48 C1289.08,388.82 1284.26,388.35 1281.45,385.55 C1278.78,382.87 1278.35,379.52 1280.17,375.52 C1282.30,370.86 1289.63,370.72 1291.82,375.31 C1293.91,379.68 1292.79,381.00 1287.03,381.00 C1281.64,381.00 1280.94,381.73 1283.83,384.35 C1285.98,386.29 1288.14,386.46 1289.78,384.82 C1291.45,383.15 1292.55,384.63 1291.02,386.48 ZM 1177.42 386.09 C1175.13,388.62 1169.96,388.54 1166.63,385.93 C1163.95,383.82 1163.20,382.00 1165.00,382.00 C1165.55,382.00 1166.90,382.90 1168.00,384.00 C1170.39,386.39 1173.29,386.57 1175.39,384.47 C1177.72,382.13 1176.26,380.09 1170.37,377.48 C1165.60,375.37 1165.00,374.78 1165.00,372.11 C1165.00,366.80 1171.89,364.13 1176.78,367.56 C1178.00,368.41 1179.00,369.99 1179.00,371.06 C1179.00,373.61 1176.96,373.57 1176.29,371.00 C1175.88,369.43 1174.93,369.00 1171.88,369.00 C1169.75,369.00 1167.93,369.45 1167.85,370.00 C1167.77,370.55 1167.66,371.51 1167.60,372.13 C1167.55,372.75 1169.97,374.44 1173.00,375.88 C1177.53,378.04 1178.56,379.00 1178.82,381.34 C1179.02,383.02 1178.44,384.96 1177.42,386.09 ZM 1462.80 382.67 C1462.63,385.28 1461.95,387.53 1461.25,387.76 C1460.30,388.07 1460.00,385.50 1460.00,377.08 L 1460.00 366.00 L 1466.50 366.00 C1471.61,366.00 1473.00,366.32 1473.00,367.50 C1473.00,368.63 1471.78,369.00 1468.00,369.00 L 1463.00 369.00 L 1463.00 372.50 C1463.00,375.98 1463.02,376.00 1467.50,376.00 C1469.97,376.00 1472.00,376.45 1472.00,377.00 C1472.00,377.55 1470.00,378.00 1467.55,378.00 L 1463.11 378.00 ZM 1584.00 380.92 C1583.70,384.79 1583.00,387.51 1582.25,387.76 C1581.30,388.07 1581.00,385.39 1581.00,376.50 C1581.00,367.61 1581.30,364.93 1582.25,365.24 C1582.94,365.47 1583.72,367.20 1584.00,369.08 C1584.47,372.32 1584.71,372.50 1588.50,372.50 L 1592.50 372.50 L 1592.79 380.25 C1592.98,385.15 1592.70,388.00 1592.04,388.00 C1591.44,388.00 1590.99,385.56 1590.98,382.25 C1590.97,375.43 1590.10,373.71 1586.89,374.16 C1584.72,374.47 1584.45,375.08 1584.00,380.92 ZM 950.20 380.50 C949.90,386.38 949.04,388.71 947.68,387.35 C947.31,386.97 947.00,383.43 947.00,379.46 L 947.00 372.26 L 952.47 372.14 C959.14,371.98 960.24,373.41 959.80,381.70 C959.35,390.11 957.17,389.83 956.80,381.32 L 956.50 374.50 L 953.50 374.50 C950.53,374.50 950.50,374.57 950.20,380.50 ZM 1551.43 386.43 C1549.17,388.69 1544.38,388.38 1541.81,385.81 C1539.14,383.14 1541.14,381.91 1543.98,384.49 C1546.31,386.59 1549.50,386.09 1549.50,383.62 C1549.50,382.40 1548.34,381.38 1546.10,380.63 C1539.02,378.28 1539.41,372.75 1546.69,372.20 C1550.97,371.88 1554.26,374.14 1552.32,376.08 C1551.65,376.75 1550.89,376.57 1550.04,375.54 C1549.33,374.69 1547.65,374.00 1546.30,374.00 C1542.82,374.00 1543.68,377.22 1547.51,378.50 C1549.16,379.05 1551.06,379.86 1551.75,380.31 C1553.48,381.43 1553.31,384.54 1551.43,386.43 ZM 664.41 383.51 C666.17,386.19 668.87,386.73 670.80,384.80 C672.07,383.53 672.41,378.24 671.39,375.58 C670.76,373.94 667.36,373.48 665.33,374.78 C663.16,376.15 662.67,380.85 664.41,383.51 ZM 1697.00 382.20 C1697.00,385.40 1696.55,388.00 1696.00,388.00 C1695.42,388.00 1695.00,384.74 1695.00,380.22 L 1695.00 372.43 L 1700.19 372.21 C1703.48,372.07 1705.66,372.44 1706.17,373.24 C1706.61,373.93 1706.98,377.58 1706.98,381.33 C1707.00,386.36 1706.67,388.06 1705.75,387.75 C1704.96,387.49 1704.39,384.89 1704.20,380.67 C1703.93,374.50 1703.74,374.00 1701.65,374.00 C1698.11,374.00 1697.00,375.95 1697.00,382.20 ZM 1656.56 383.78 C1659.44,387.90 1664.00,385.36 1664.00,379.63 C1664.00,375.84 1662.48,374.00 1659.34,374.00 C1655.32,374.00 1653.70,379.70 1656.56,383.78 ZM 810.65 384.17 C812.70,386.43 813.83,386.47 816.17,384.35 C819.59,381.25 817.83,374.00 813.66,374.00 C812.42,374.00 810.86,374.54 810.20,375.20 C808.47,376.93 808.73,382.04 810.65,384.17 ZM 1397.00 381.12 C1397.00,387.46 1396.40,389.06 1394.67,387.33 C1394.30,386.97 1394.00,383.85 1394.00,380.42 C1394.00,376.35 1393.56,373.99 1392.75,373.66 C1391.81,373.28 1391.79,372.95 1392.67,372.32 C1393.31,371.86 1394.15,370.24 1394.53,368.73 C1394.97,367.00 1396.09,365.76 1397.57,365.39 C1401.22,364.48 1402.90,365.60 1399.75,366.86 C1396.42,368.18 1396.17,370.73 1399.25,371.98 L 1401.50 372.90 L 1399.25 373.57 C1397.20,374.17 1397.00,374.84 1397.00,381.12 ZM 1355.62 384.48 C1357.80,386.66 1360.12,386.05 1361.93,382.81 C1364.89,377.54 1359.80,371.43 1355.44,375.05 C1353.50,376.66 1353.61,382.47 1355.62,384.48 ZM 1210.69 384.21 C1212.88,386.63 1215.06,386.14 1216.93,382.81 C1219.89,377.54 1214.80,371.43 1210.44,375.05 C1208.48,376.68 1208.62,381.92 1210.69,384.21 ZM 715.00 379.78 L 715.00 387.57 L 710.75 387.73 C703.90,388.01 703.00,386.98 703.00,378.95 C703.00,374.98 703.43,372.00 704.00,372.00 C704.55,372.00 705.00,374.28 705.00,377.07 C705.00,385.05 707.71,388.15 711.43,384.43 C712.47,383.39 713.00,381.03 713.00,377.43 C713.00,374.44 713.45,372.00 714.00,372.00 C714.58,372.00 715.00,375.26 715.00,379.78 ZM 991.65 384.17 C995.15,388.03 998.28,385.31 997.81,378.82 C997.55,375.18 997.14,374.45 995.19,374.17 C993.93,373.99 992.24,374.39 991.44,375.05 C989.49,376.66 989.62,381.92 991.65,384.17 ZM 852.00 381.12 C852.00,385.04 851.57,388.00 851.00,388.00 C850.43,388.00 850.00,385.04 850.00,381.11 C850.00,375.47 849.68,374.09 848.25,373.54 C846.58,372.90 846.58,372.82 848.25,371.88 C849.21,371.34 850.00,370.11 850.00,369.15 C850.00,366.73 851.96,365.00 854.70,365.00 C857.61,365.00 857.66,366.23 854.81,367.51 C851.72,368.91 851.44,370.84 854.17,371.95 L 856.50 372.90 L 854.25 373.57 C852.20,374.17 852.00,374.84 852.00,381.12 ZM 918.00 377.00 C918.00,387.07 917.52,389.19 915.67,387.33 C915.30,386.97 915.00,382.02 915.00,376.33 C915.00,367.81 915.26,366.00 916.50,366.00 C917.74,366.00 918.00,367.89 918.00,377.00 ZM 746.78 376.17 C746.58,384.01 746.13,387.46 745.25,387.75 C744.30,388.07 744.00,385.40 744.00,376.58 C744.00,366.84 744.24,365.00 745.53,365.00 C746.84,365.00 747.02,366.68 746.78,376.17 ZM 1251.00 376.42 C1251.00,382.99 1250.59,388.00 1250.06,388.00 C1248.41,388.00 1248.23,386.72 1248.36,376.08 C1248.46,368.74 1248.87,365.54 1249.75,365.25 C1250.70,364.93 1251.00,367.59 1251.00,376.42 ZM 1032.00 380.00 C1032.00,387.35 1031.44,389.11 1029.67,387.33 C1029.30,386.97 1029.00,383.37 1029.00,379.33 C1029.00,373.48 1029.30,372.00 1030.50,372.00 C1031.71,372.00 1032.00,373.56 1032.00,380.00 ZM 1624.79 379.67 C1624.60,384.70 1624.07,387.48 1623.25,387.75 C1622.32,388.06 1622.00,386.10 1622.00,380.08 C1622.00,373.47 1622.28,372.00 1623.54,372.00 C1624.82,372.00 1625.03,373.30 1624.79,379.67 ZM 1064.20 384.80 C1064.86,385.46 1065.90,386.00 1066.50,386.00 C1068.18,386.00 1070.00,383.81 1070.00,381.80 C1070.00,380.69 1069.26,380.00 1068.08,380.00 C1063.49,380.00 1061.66,382.26 1064.20,384.80 ZM 1504.25 385.34 C1504.94,385.62 1505.64,385.88 1505.82,385.92 C1507.14,386.25 1510.00,383.55 1510.00,381.96 C1510.00,379.96 1507.75,379.39 1504.58,380.61 C1502.70,381.33 1502.47,384.62 1504.25,385.34 ZM 1282.47 377.96 C1283.27,379.24 1288.67,379.34 1289.44,378.09 C1290.50,376.38 1288.79,374.00 1286.52,374.00 C1283.94,374.00 1281.50,376.39 1282.47,377.96 ZM 2009.00 106.50 C2009.00,108.50 2009.50,109.00 2011.50,109.00 C2013.50,109.00 2014.00,108.50 2014.00,106.50 C2014.00,104.50 2013.50,104.00 2011.50,104.00 C2009.50,104.00 2009.00,104.50 2009.00,106.50 ZM 1624.77 367.19 C1624.15,369.04 1622.00,369.35 1622.00,367.58 C1622.00,366.71 1622.71,366.00 1623.58,366.00 C1624.45,366.00 1624.99,366.53 1624.77,367.19 Z" fill="rgb(6,49,98)"/>
</g>
</svg>
